{
	"asset":{
		"generator":"Khronos glTF Blender I/O v3.5.30",
		"version":"2.0"
	},
	"scene":0,
	"scenes":[
		{
			"name":"Scene",
			"nodes":[
				0
			]
		}
	],
	"nodes":[
		{
			"mesh":0,
			"name":"Cube"
		}
	],
	"materials":[
		{
			"doubleSided":true,
			"name":"base",
			"pbrMetallicRoughness":{
				"baseColorTexture":{
					"index":0
				},
				"metallicFactor":0,
				"roughnessFactor":0.5
			}
		},
		{
			"doubleSided":true,
			"name":"passable",
			"pbrMetallicRoughness":{
				"baseColorTexture":{
					"index":1
				},
				"metallicFactor":0,
				"roughnessFactor":0.5
			}
		},
		{
			"doubleSided":true,
			"name":"impassable",
			"pbrMetallicRoughness":{
				"baseColorTexture":{
					"index":2
				},
				"metallicFactor":0,
				"roughnessFactor":0.5
			}
		}
	],
	"meshes":[
		{
			"name":"Cube.001",
			"primitives":[
				{
					"attributes":{
						"POSITION":0,
						"TEXCOORD_0":1,
						"NORMAL":2
					},
					"indices":3,
					"material":0
				},
				{
					"attributes":{
						"POSITION":4,
						"TEXCOORD_0":5,
						"NORMAL":6
					},
					"indices":7,
					"material":1
				},
				{
					"attributes":{
						"POSITION":8,
						"TEXCOORD_0":9,
						"NORMAL":10
					},
					"indices":11,
					"material":2
				}
			]
		}
	],
	"textures":[
		{
			"sampler":0,
			"source":0
		},
		{
			"sampler":0,
			"source":1
		},
		{
			"sampler":0,
			"source":2
		}
	],
	"images":[
		{
			"mimeType":"image/png",
			"name":"3d_texture_base",
			"uri":"3d_texture_base.png"
		},
		{
			"mimeType":"image/png",
			"name":"3d_texture_passable",
			"uri":"3d_texture_passable.png"
		},
		{
			"mimeType":"image/png",
			"name":"3d_texture_impassable",
			"uri":"3d_texture_impassable.png"
		}
	],
	"accessors":[
		{
			"bufferView":0,
			"componentType":5126,
			"count":1633,
			"max":[
				15,
				0,
				15
			],
			"min":[
				-15,
				-2,
				-15
			],
			"type":"VEC3"
		},
		{
			"bufferView":1,
			"componentType":5126,
			"count":1633,
			"type":"VEC2"
		},
		{
			"bufferView":2,
			"componentType":5126,
			"count":1633,
			"type":"VEC3"
		},
		{
			"bufferView":3,
			"componentType":5123,
			"count":6936,
			"type":"SCALAR"
		},
		{
			"bufferView":4,
			"componentType":5126,
			"count":925,
			"max":[
				15,
				0,
				15
			],
			"min":[
				-15,
				0,
				-15
			],
			"type":"VEC3"
		},
		{
			"bufferView":5,
			"componentType":5126,
			"count":925,
			"type":"VEC2"
		},
		{
			"bufferView":6,
			"componentType":5126,
			"count":925,
			"type":"VEC3"
		},
		{
			"bufferView":7,
			"componentType":5123,
			"count":4896,
			"type":"SCALAR"
		},
		{
			"bufferView":8,
			"componentType":5126,
			"count":162,
			"max":[
				15,
				-1,
				15
			],
			"min":[
				-15,
				-1,
				-12
			],
			"type":"VEC3"
		},
		{
			"bufferView":9,
			"componentType":5126,
			"count":162,
			"type":"VEC2"
		},
		{
			"bufferView":10,
			"componentType":5126,
			"count":162,
			"type":"VEC3"
		},
		{
			"bufferView":11,
			"componentType":5123,
			"count":504,
			"type":"SCALAR"
		}
	],
	"bufferViews":[
		{
			"buffer":0,
			"byteLength":19596,
			"byteOffset":0,
			"target":34962
		},
		{
			"buffer":0,
			"byteLength":13064,
			"byteOffset":19596,
			"target":34962
		},
		{
			"buffer":0,
			"byteLength":19596,
			"byteOffset":32660,
			"target":34962
		},
		{
			"buffer":0,
			"byteLength":13872,
			"byteOffset":52256,
			"target":34963
		},
		{
			"buffer":0,
			"byteLength":11100,
			"byteOffset":66128,
			"target":34962
		},
		{
			"buffer":0,
			"byteLength":7400,
			"byteOffset":77228,
			"target":34962
		},
		{
			"buffer":0,
			"byteLength":11100,
			"byteOffset":84628,
			"target":34962
		},
		{
			"buffer":0,
			"byteLength":9792,
			"byteOffset":95728,
			"target":34963
		},
		{
			"buffer":0,
			"byteLength":1944,
			"byteOffset":105520,
			"target":34962
		},
		{
			"buffer":0,
			"byteLength":1296,
			"byteOffset":107464,
			"target":34962
		},
		{
			"buffer":0,
			"byteLength":1944,
			"byteOffset":108760,
			"target":34962
		},
		{
			"buffer":0,
			"byteLength":1008,
			"byteOffset":110704,
			"target":34963
		}
	],
	"samplers":[
		{
			"magFilter":9729,
			"minFilter":9987
		}
	],
	"buffers":[
		{
			"byteLength":111712,
			"uri":"3d_map.bin"
		}
	]
}
